<svg width="40" height="58" viewBox="0 0 40 58" xmlns="http://www.w3.org/2000/svg"><title>E53100BA-26A9-4F92-B816-6D838456A610</title><g fill="none" fill-rule="evenodd"><path d="M19.884 57.539C17.368 57.539 0 30.113 0 19.489 0 8.863 8.902.25 19.884.25c10.98 0 19.883 8.613 19.883 19.237 0 10.625-17.368 38.051-19.883 38.051z" fill="#2548af"/><path d="M35.951 19.52c0 8.602-7.207 15.575-16.097 15.575S3.757 28.122 3.757 19.52c0-8.601 7.207-15.574 16.097-15.574s16.097 6.973 16.097 15.574" fill="#FFF"/><path fill="#E11021" d="M12.732 10.783h3.87L14.96 26.68h-3.834zm5.531 1.476l2.081 4.693 2.812-6.17h3.177L28.45 26.68h-4.126l-.876-6.586-3.067 6.586-2.958-6.51z"/></g></svg>